/* XPM */
static char *ShaderEditor_xpm[] = {
/* width height num_colors chars_per_pixel */
"    80    16      256            2",
/* colors */
"`` c #ff00ff",
"`. c #000000",
"`# c #737373",
"`a c #ffffff",
"`b c #f0f8ff",
"`c c #f0f0f0",
"`d c #f4f7fd",
"`e c #fbfcfe",
"`f c #f9fbfe",
"`g c #f7f9fd",
"`h c #f5f7fd",
"`i c #f2f6fc",
"`j c #f0f3fc",
"`k c #edf2fb",
"`l c #f5f8fd",
"`m c #f3f6fd",
"`n c #f1f5fc",
"`o c #f0f4fc",
"`p c #eff3fb",
"`q c #eef2fb",
"`r c #ecf1fb",
"`s c #ebeffa",
"`t c #eaeffa",
"`u c #e8eefa",
"`v c #e6edfa",
"`w c #e5ebfa",
"`x c #eef3fb",
"`y c #ebf0fa",
"`z c #e8eef9",
"`A c #e6ecf9",
"`B c #e3e9f9",
"`C c #dfe7f8",
"`D c #dce5f7",
"`E c #e6ecfa",
"`F c #e5ebf9",
"`G c #e3ebf9",
"`H c #e2e9f8",
"`I c #e1e7f8",
"`J c #dee7f7",
"`K c #dde6f7",
"`L c #dce4f7",
"`M c #dae3f6",
"`N c #d8e2f7",
"`O c #d6e1f6",
"`P c #d5dff6",
"`Q c #d4def5",
"`R c #000000",
"`S c #000000",
"`T c #000000",
"`U c #000000",
"`V c #000000",
"`W c #000000",
"`X c #000000",
"`Y c #000000",
"`Z c #000000",
"`0 c #000000",
"`1 c #000000",
"`2 c #000000",
"`3 c #000000",
"`4 c #000000",
"`5 c #000000",
"`6 c #000000",
"`7 c #000000",
"`8 c #000000",
".` c #000000",
".. c #000000",
".# c #000000",
".a c #000000",
".b c #000000",
".c c #000000",
".d c #000000",
".e c #000000",
".f c #000000",
".g c #000000",
".h c #000000",
".i c #000000",
".j c #000000",
".k c #000000",
".l c #000000",
".m c #000000",
".n c #000000",
".o c #000000",
".p c #000000",
".q c #000000",
".r c #000000",
".s c #000000",
".t c #000000",
".u c #000000",
".v c #000000",
".w c #000000",
".x c #000000",
".y c #000000",
".z c #000000",
".A c #000000",
".B c #000000",
".C c #000000",
".D c #000000",
".E c #000000",
".F c #000000",
".G c #000000",
".H c #000000",
".I c #000000",
".J c #000000",
".K c #000000",
".L c #000000",
".M c #000000",
".N c #000000",
".O c #000000",
".P c #000000",
".Q c #000000",
".R c #000000",
".S c #000000",
".T c #000000",
".U c #000000",
".V c #000000",
".W c #000000",
".X c #000000",
".Y c #000000",
".Z c #000000",
".0 c #000000",
".1 c #000000",
".2 c #000000",
".3 c #000000",
".4 c #000000",
".5 c #000000",
".6 c #000000",
".7 c #000000",
".8 c #000000",
"#` c #000000",
"#. c #000000",
"## c #000000",
"#a c #000000",
"#b c #000000",
"#c c #000000",
"#d c #000000",
"#e c #000000",
"#f c #000000",
"#g c #000000",
"#h c #000000",
"#i c #000000",
"#j c #000000",
"#k c #000000",
"#l c #000000",
"#m c #000000",
"#n c #000000",
"#o c #000000",
"#p c #000000",
"#q c #000000",
"#r c #000000",
"#s c #000000",
"#t c #000000",
"#u c #000000",
"#v c #000000",
"#w c #000000",
"#x c #000000",
"#y c #000000",
"#z c #000000",
"#A c #000000",
"#B c #000000",
"#C c #000000",
"#D c #000000",
"#E c #000000",
"#F c #000000",
"#G c #000000",
"#H c #000000",
"#I c #000000",
"#J c #000000",
"#K c #000000",
"#L c #000000",
"#M c #000000",
"#N c #000000",
"#O c #000000",
"#P c #000000",
"#Q c #000000",
"#R c #000000",
"#S c #000000",
"#T c #000000",
"#U c #000000",
"#V c #000000",
"#W c #000000",
"#X c #000000",
"#Y c #000000",
"#Z c #000000",
"#0 c #000000",
"#1 c #000000",
"#2 c #000000",
"#3 c #000000",
"#4 c #000000",
"#5 c #000000",
"#6 c #000000",
"#7 c #000000",
"#8 c #000000",
"a` c #000000",
"a. c #000000",
"a# c #000000",
"aa c #000000",
"ab c #000000",
"ac c #000000",
"ad c #000000",
"ae c #000000",
"af c #000000",
"ag c #000000",
"ah c #000000",
"ai c #000000",
"aj c #000000",
"ak c #000000",
"al c #000000",
"am c #000000",
"an c #000000",
"ao c #000000",
"ap c #000000",
"aq c #000000",
"ar c #000000",
"as c #000000",
"at c #000000",
"au c #000000",
"av c #000000",
"aw c #000000",
"ax c #000000",
"ay c #000000",
"az c #000000",
"aA c #000000",
"aB c #000000",
"aC c #000000",
"aD c #000000",
"aE c #000000",
"aF c #000000",
"aG c #000000",
"aH c #000000",
"aI c #000000",
"aJ c #000000",
"aK c #000000",
"aL c #000000",
"aM c #000000",
"aN c #000000",
"aO c #000000",
"aP c #000000",
"aQ c #000000",
"aR c #000000",
"aS c #000000",
"aT c #000000",
"aU c #000000",
"aV c #000000",
"aW c #000000",
"aX c #000000",
"aY c #000000",
"aZ c #000000",
"a0 c #000000",
"a1 c #000000",
"a2 c #000000",
"a3 c #000000",
"a4 c #000000",
"a5 c #000000",
"a6 c #000000",
"a7 c #000000",
"a8 c #000000",
/* pixels */
"````````````````````````````````````````````````````````````````````````````````````````````````````````````````````````````````````````````````````````````````",
"`````````````````````.`.`.`````````.`.`.`.`.`.`.`.`.`.`.`.`.`.`````````````````````````````````````````````````````````````````````````#`````````#`````````#````",
"```````````````````.```````.```.```.`#`.`a`a`a`a`a`a`a`b`.`#`.`````````````````.`.`.`.`````````````````````.`.`.`.``````````````````````````````````````````````",
"```.`.`.`.`.`````````````````.`.```.`#`.`a`a`a`a`a`a`b`c`.`#`.```````.```````.`#`#`#`#`.`````````````````.`#`#`#`#`.```````.```````````#`````````#`````````#````",
"`.`a`a`a`a`a`.`````````````.`.`.```.`#`.`a`a`a`a`a`b`a`a`.`#`.```````.`````.`#`#`#`#`#`#`.`````````````.`#`#`#`#`#`#`.`````.```````````#`````````#`````````#````",
"`.`.`.`.`.`.`.`.`.`.`.`.`.`````````.`#`.`a`a`a`a`b`c`a`a`.`#`.```````.`.`.`#`#`#`.`.`.`#`#`.`````````.`#`#`.`.`.`#`#`#`.`.`.```````#`#`#`#`#`#`#`#`#`#`#`#`#`#`#",
"`.`a`a`a`a`a`a`a`a`a`a`a`.`````````.`#`.`a`a`a`b`c`a`a`a`.`#`.```````.`#`#`#`#`.```````.`#`.`````````.`#`.```````.`#`#`#`#`.`````````#`#`#`````#`#`#`````#`#`#``",
"`.`a`a`a`.`.`.`.`.`.`.`.`.`.`.`.```.`#`.`a`a`a`a`a`a`a`a`.`#`.```````.`#`#`#`.`````````.`#`.`````````.`#`.`````````.`#`#`#`.```````````#`````````#`````````#````",
"`.`a`a`a`.`#`#`#`#`#`#`#`#`#`#`.```.`#`#`.`.`.`.`.`.`.`.`#`#`.```````.`#`#`#`.`````````.`#`.`````````.`#`.`````````.`#`#`#`.```````.`.`.`.`.`.`.`.`.`.`.`.`.`.`.",
"`.`a`a`.`.`#`#`#`#`#`#`#`#`#`.`.```.`#`#`#`#`#`#`#`#`#`#`#`#`.```````.`.`.`.`.`.`.`````.`#`.`````````.`#`.`````.`.`.`.`.`.`.```````.`a`a`a`a`a`a`a`a`a`a`a`a`d`.",
"`.`a`a`.`#`#`#`#`#`#`#`#`#`.`.`````.`#`#`#`.`.`.`.`.`.`#`#`#`.`````````````````````````.`#`.`````````.`#`.`````````````````````````.`e`.`f`.`g`.`h`.`i`.`j`.`k`.",
"`.`a`.`.`#`#`#`#`#`#`#`#`#`.```````.`#`#`#`.`a`.`.`a`.`#`#`#`.```````````````````````.`#`.`````````````.`#`.```````````````````````.`l`d`m`n`o`p`q`r`s`t`u`v`w`.",
"`.`a`.`#`#`#`#`#`#`#`#`#`.`.```````.`#`#`#`.`a`.`.`a`.`#`#`#`.`````````````````````.`#`.`````````````````.`#`.`````````````````````.`x`.`y`.`z`.`A`.`B`.`C`.`D`.",
"`.`.`.`#`#`#`#`#`#`#`#`#`.`````````.`.`#`#`.`a`a`a`a`.`#`#`.`.`````````````````````.`.`````````````````````.`.`````````````````````.`E`F`G`H`I`J`K`L`M`N`O`P`Q`.",
"`.`.`.`.`.`.`.`.`.`.`.`.`.```````````.`.`.`.`.`.`.`.`.`.`.`.```````````````````````````````````````````````````````````````````````.`.`.`.`.`.`.`.`.`.`.`.`.`.`.",
"````````````````````````````````````````````````````````````````````````````````````````````````````````````````````````````````````````````````````````````````"
};
